:SAMPLES-PER-SECOND 30
:FULLY-SPECIFIED
:DEGREES
18
root  -77.3689 37.9318 0.768185 -6.18739 49.5682 -8.23594
RightUpLeg  -21.2357 12.7687 13.831
RightLeg  28.1974 11.1567 0.936365
RightFoot  -8.44046 0.262016 -6.3417
RightToes  1.74622e-010 -3.18055e-015 8.94531e-016
Spine  4.36458 -8.46419 -13.6273
Spine1  4.39975 -13.8726 23.7319
HEad  -3.53937 34.594 -25.1864
LeftShoulder1  0 0 -2.47967e-037
LeftArm  -35.5571 -44.0796 22.0306
LeftForeArm  -18.4185 0.343764 5.76463
LeftHand  -0.96968 1.25865 20.0503
RightShoulder  -2.48481e-017 0 -8.08114e-019
RightArm  -25.3281 -50.4756 31.6921
RightForeArm  -48.5202 15.0402 -17.6745
RightHand  1.90891 -12.7054 -11.7097
LeftUpLeg  -11.8461 11.0631 4.45144
LeftLeg  55.8414 -2.86818 14.5503
LeftFoot  6.7307 0.358366 -1.94368
LeftToes  -1.45516e-011 5.53925e-011 1.30052e-011
19
root  -75.3851 38.4674 1.01904 -4.09226 46.3457 -5.32072
RightUpLeg  -17.2914 15.144 10.7757
RightLeg  26.6176 12.27 1.53876
RightFoot  -9.86545 0.162077 -5.58644
RightToes  1.74622e-010 -3.18055e-015 8.94531e-016
Spine  5.58059 -7.59575 -15.5967
Spine1  3.10172 -12.6966 22.3145
HEad  -2.8195 35.8021 -26.1556
LeftShoulder1  0 0 -2.47967e-037
LeftArm  -35.8641 -43.2284 24.4241
LeftForeArm  -19.7033 1.07372 5.86302
LeftHand  -1.07765 1.19059 21.4552
RightShoulder  -2.48481e-017 0 -8.08114e-019
RightArm  -24.4546 -49.863 28.3203
RightForeArm  -48.4837 15.608 -18.2232
RightHand  2.0133 -12.7182 -13.4606
LeftUpLeg  -16.4999 10.1161 3.33639
LeftLeg  53.803 -1.49688 15.3219
LeftFoot  2.75454 0.204053 -1.38474
LeftToes  -1.45516e-011 5.53925e-011 1.30052e-011
20
root  -73.4441 38.8602 1.18909 -3.15173 43.2791 -3.30825
RightUpLeg  -13.2157 15.0864 8.02614
RightLeg  25.0015 14.7936 2.78024
RightFoot  -11.1608 0.0850827 -4.75125
RightToes  1.74622e-010 -3.18055e-015 8.94531e-016
Spine  6.89483 -6.57907 -16.5377
Spine1  2.72156 -11.3837 19.889
HEad  -2.98983 36.446 -26.6567
LeftShoulder1  0 0 -2.47967e-037
LeftArm  -35.4445 -42.5188 26.4116
LeftForeArm  -20.8771 1.79614 5.71983
LeftHand  -1.07354 1.17556 21.2955
RightShoulder  -2.48481e-017 0 -8.08114e-019
RightArm  -24.2939 -48.7134 24.7094
RightForeArm  -50.6844 16.087 -18.7629
RightHand  2.16215 -13.1541 -14.3006
LeftUpLeg  -20.3149 10.2678 2.80763
LeftLeg  50.5592 0.0324272 15.3391
LeftFoot  -0.277716 0.12977 -1.1502
LeftToes  -1.45516e-011 5.53925e-011 1.30052e-011
21
root  -71.4983 39.0691 1.31301 -2.98618 40.0136 -2.87091
RightUpLeg  -9.96369 13.4249 5.77849
RightLeg  23.8501 19.2157 4.84819
RightFoot  -12.6464 0.0196031 -3.44361
RightToes  1.74622e-010 -3.18055e-015 8.94531e-016
Spine  7.48811 -5.58116 -15.6518
Spine1  2.87041 -9.84283 16.7278
HEad  -3.21377 36.9183 -26.5913
LeftShoulder1  0 0 -2.47967e-037
LeftArm  -34.3509 -41.6616 27.459
LeftForeArm  -22.3391 1.68244 5.59975
LeftHand  -1.06388 1.19293 21.2314
RightShoulder  -2.48481e-017 0 -8.08114e-019
RightArm  -24.266 -46.7909 20.6231
RightForeArm  -54.5454 16.2869 -19.182
RightHand  2.43353 -14.1328 -14.9165
LeftUpLeg  -23.8505 12.5108 3.33131
LeftLeg  46.0604 0.484818 13.282
LeftFoot  -1.82915 0.149574 -1.52348
LeftToes  -1.45516e-011 5.53925e-011 1.30052e-011
22
root  -69.5707 39.0322 1.40495 -3.16508 36.6513 -3.51069
RightUpLeg  -8.13359 11.7078 3.84616
RightLeg  24.2091 23.6104 7.05588
RightFoot  -14.9443 -0.0218995 -1.76901
RightToes  1.74622e-010 -3.18055e-015 8.94531e-016
Spine  8.03619 -4.60944 -14.1829
Spine1  2.72511 -8.34813 14.2829
HEad  -3.56661 37.5304 -26.8402
LeftShoulder1  0 0 -2.47967e-037
LeftArm  -32.3246 -40.4373 27.8589
LeftForeArm  -23.461 1.55037 5.19366
LeftHand  -1.08919 1.20885 21.7357
RightShoulder  -2.48481e-017 0 -8.08114e-019
RightArm  -24.0246 -43.5163 16.6326
RightForeArm  -58.1848 15.9803 -19.4474
RightHand  2.81846 -15.3552 -16.058
LeftUpLeg  -27.2806 16.5672 4.43692
LeftLeg  40.8758 -0.447217 9.84656
LeftFoot  -0.69697 0.208896 -1.89745
LeftToes  -1.45516e-011 5.53925e-011 1.30052e-011
23
root  -67.704 38.7667 1.4638 -3.65014 33.766 -4.26899
RightUpLeg  -7.02149 10.8681 1.96464
RightLeg  25.9763 26.2249 8.87245
RightFoot  -17.803 -0.003643 -0.225705
RightToes  1.74622e-010 -3.18055e-015 8.94531e-016
Spine  9.54706 -3.70021 -13.6665
Spine1  2.13838 -7.23773 12.7873
HEad  -4.24214 38.1354 -27.288
LeftShoulder1  0 0 -2.47967e-037
LeftArm  -29.9374 -38.9615 28.2363
LeftForeArm  -24.077 1.39399 4.69229
LeftHand  -1.12061 1.191 22.1543
RightShoulder  -2.48481e-017 0 -8.08114e-019
RightArm  -23.67 -39.0857 13.4972
RightForeArm  -60.0053 15.178 -19.6093
RightHand  3.0883 -16.0144 -17.2354
LeftUpLeg  -30.2623 20.9232 5.38571
LeftLeg  35.6045 -0.196215 7.98922
LeftFoot  2.08732 0.196921 -1.41993
LeftToes  -1.45516e-011 5.53925e-011 1.30052e-011
24
root  -65.9148 38.3387 1.50241 -4.4803 32.1047 -5.0335
RightUpLeg  -5.84482 10.9633 0.315219
RightLeg  28.0979 27.3026 10.1831
RightFoot  -20.4127 0.0573801 0.81366
RightToes  1.74622e-010 -3.18055e-015 8.94531e-016
Spine  11.9136 -3.11515 -14.0372
Spine1  1.58533 -6.65306 11.2629
HEad  -5.05647 38.6863 -27.3356
LeftShoulder1  0 0 -2.47967e-037
LeftArm  -28.1644 -37.3751 28.458
LeftForeArm  -24.8443 1.30345 4.41711
LeftHand  -1.10509 1.24547 22.2037
RightShoulder  -2.48481e-017 0 -8.08114e-019
RightArm  -23.5282 -34.6073 10.964
RightForeArm  -60.5278 14.3868 -19.7438
RightHand  3.16863 -16.1588 -17.6943
LeftUpLeg  -32.9963 24.3851 5.98636
LeftLeg  30.3233 2.29515 7.80921
LeftFoot  4.05733 0.0703848 -0.372563
LeftToes  -1.45516e-011 5.53925e-011 1.30052e-011
25
root  -64.1535 37.7722 1.55951 -5.45719 31.9654 -6.3086
RightUpLeg  -4.64263 11.1264 -0.738275
RightLeg  30.1179 27.4679 11.035
RightFoot  -22.7698 0.0888443 0.988542
RightToes  1.74622e-010 -3.18055e-015 8.94531e-016
Spine  14.2142 -2.98081 -14.3148
Spine1  1.44882 -6.52085 9.4166
HEad  -5.83007 39.0081 -26.9399
LeftShoulder1  0 0 -2.47967e-037
LeftArm  -26.8308 -35.9093 28.0174
LeftForeArm  -26.0909 1.24136 4.2572
LeftHand  -1.02819 1.45915 22.1347
RightShoulder  -2.48481e-017 0 -8.08114e-019
RightArm  -23.6273 -30.9077 8.23006
RightForeArm  -60.7473 13.93 -19.9207
RightHand  3.2243 -16.2769 -17.9549
LeftUpLeg  -36.327 26.9424 6.05275
LeftLeg  25.01 3.9417 6.80433
LeftFoot  4.75518 0.0517449 -0.229848
LeftToes  -1.45516e-011 5.53925e-011 1.30052e-011
26
root  -62.3662 37.0854 1.65525 -6.49615 32.882 -8.18296
RightUpLeg  -3.54116 10.1805 -1.3524
RightLeg  32.0676 26.53 11.2039
RightFoot  -25.1449 0.0575489 0.476322
RightToes  1.74622e-010 -3.18055e-015 8.94531e-016
Spine  16.2479 -3.00352 -14.3668
Spine1  1.55967 -6.55524 7.7079
HEad  -6.66403 39.1944 -26.3183
LeftShoulder1  0 0 -2.47967e-037
LeftArm  -24.9866 -35.0038 26.8919
LeftForeArm  -27.2491 1.08553 3.78422
LeftHand  -0.932453 1.70292 21.9063
RightShoulder  -2.48481e-017 0 -8.08114e-019
RightArm  -23.1644 -27.7628 5.00618
RightForeArm  -61.0193 13.2882 -20.1112
RightHand  3.29996 -16.3866 -18.4467
LeftUpLeg  -40.3765 28.7161 5.39427
LeftLeg  19.8552 2.91747 4.57692
LeftFoot  5.28172 0.202517 -1.13892
LeftToes  -1.45516e-011 5.53925e-011 1.30052e-011
27
root  -60.5549 36.3109 1.77876 -7.72389 33.9519 -10.4632
RightUpLeg  -2.4255 8.02562 -1.81464
RightLeg  33.9954 24.8937 10.8401
RightFoot  -27.2598 0.0792892 0.554219
RightToes  1.74622e-010 -3.18055e-015 8.94531e-016
Spine  18.4023 -2.78551 -14.5582
Spine1  1.54354 -6.35931 6.03404
HEad  -7.60279 39.6812 -25.5356
LeftShoulder1  0 0 -2.47967e-037
LeftArm  -23.0389 -34.7156 25.3599
LeftForeArm  -27.0754 0.910084 3.1905
LeftHand  -0.860562 1.82676 21.3586
RightShoulder  -2.48481e-017 0 -8.08114e-019
RightArm  -21.1702 -24.48 1.65605
RightForeArm  -62.1811 11.7235 -20.1751
RightHand  3.31826 -16.3896 -18.6317
LeftUpLeg  -44.0028 28.8329 5.59987
LeftLeg  15.6715 3.12612 2.77505
LeftFoot  5.21226 0.191072 -1.06206
LeftToes  -1.45516e-011 5.53925e-011 1.30052e-011
